{"title":"Valiyavan (2015) DVD Scr x264 AAC 700MB","uid":11782137,"size":734153067,"categoryP":"video","categoryS":"movies","magnet":"?xt=urn:btih:3493b427ceafc489464060c45c7bb968e9d051ac&amp;dn=Valiyavan+%282015%29+DVD+Scr+x264+AAC+700MB&amp;tr=udp%3A%2F%2Ftracker.openbittorrent.com%3A80&amp;tr=udp%3A%2F%2Fopen.demonii.com%3A1337&amp;tr=udp%3A%2F%2Ftracker.coppersurfer.tk%3A6969&amp;tr=udp%3A%2F%2Fexodus.desync.com%3A6969","seeders":5,"leechers":0,"uploader":"TeamXDN","files":1,"time":1427645721,"description":"Valiyavan (2015) DVD Scr x264 AAC 700MB\n\nFormat                                   : MPEG-4\nFormat profile                           : Base Media\nCodec ID                                 : isom\nFile size                                : 700 MiB\nDuration                                 : 2h 6mn\nOverall bit rate mode                    : Variable\nOverall bit rate                         : 774 Kbps\nEncoded date                             : UTC 2015-03-29 14:01:11\nTagged date                              : UTC 2015-03-29 14:01:11\n\nVideo\nID                                       : 1\nFormat                                   : AVC\nFormat/Info                              : Advanced Video Codec\nFormat profile                           : &lt;a class=&quot;__cf_email__&quot; href=&quot;/cdn-cgi/l/email-protection&quot; data-cfemail=&quot;eaa2838d82aaa6d8c4db&quot;&gt;[email&amp;#160;protected]&lt;/a&gt;&lt;script cf-hash='f9e31' type=&quot;text/javascript&quot;&gt;\n/* &lt;![CDATA[ */!function(){try{var t=&quot;currentScript&quot;in document?document.currentScript:function(){for(var t=document.getElementsByTagName(&quot;script&quot;),e=t.length;e--;)if(t[e].getAttribute(&quot;cf-hash&quot;))return t[e]}();if(t&amp;&amp;t.previousSibling){var e,r,n,i,c=t.previousSibling,a=c.getAttribute(&quot;data-cfemail&quot;);if(a){for(e=&quot;&quot;,r=parseInt(a.substr(0,2),16),n=2;a.length-n;n+=2)i=parseInt(a.substr(n,2),16)^r,e+=String.fromCharCode(i);e=document.createTextNode(e),c.parentNode.replaceChild(e,c)}}}catch(u){}}();/* ]]&gt; */&lt;/script&gt;\nFormat settings, CABAC                   : Yes\nFormat settings, ReFrames                : 4 frames\nCodec ID                                 : avc1\nCodec ID/Info                            : Advanced Video Coding\nDuration                                 : 2h 6mn\nBit rate                                 : 697 Kbps\nMaximum bit rate                         : 3 143 Kbps\nWidth                                    : 608 pixels\nHeight                                   : 256 pixels\nDisplay aspect ratio                     : 2.40:1\nFrame rate mode                          : Constant\nFrame rate                               : 25.000 fps\nColor space                              : YUV\nChroma subsampling                       : 4:2:0\nBit depth                                : 8 bits\nScan type                                : Progressive\nBits/(Pixel*Frame)                       : 0.179\nStream size                              : 630 MiB (90%)\nWriting library                          : x264 core 142 r2431 ac76440\nEncoded date                             : UTC 2015-03-29 12:24:17\nTagged date                              : UTC 2015-03-29 14:02:29\n\nAudio\nID                                       : 2\nFormat                                   : AAC\nFormat/Info                              : Advanced Audio Codec\nFormat profile                           : HE-AAC / LC\nCodec ID                                 : 40\nDuration                                 : 2h 6mn\nBit rate mode                            : Variable\nBit rate                                 : 74.0 Kbps\nMaximum bit rate                         : 86.4 Kbps\nChannel(s)                               : 2 channels\nChannel positions                        : Front: L R\nSampling rate                            : 48.0 KHz / 24.0 KHz\nCompression mode                         : Lossy\nStream size                              : 66.9 MiB (10%)\nEncoded date                             : UTC 2015-03-29 12:25:20\nTagged date                              : UTC 2015-03-29 14:02:29","torrent":{"xt":"urn:btih:3493b427ceafc489464060c45c7bb968e9d051ac","amp;dn":"Valiyavan+%282015%29+DVD+Scr+x264+AAC+700MB","amp;tr":["udp%3A%2F%2Ftracker.openbittorrent.com%3A80","udp%3A%2F%2Fopen.demonii.com%3A1337","udp%3A%2F%2Ftracker.coppersurfer.tk%3A6969","udp%3A%2F%2Fexodus.desync.com%3A6969"],"infoHash":"3493b427ceafc489464060c45c7bb968e9d051ac","infoHashBuffer":{"type":"Buffer","data":[52,147,180,39,206,175,196,137,70,64,96,196,92,123,185,104,233,208,81,172]},"announce":[],"urlList":[]}}